# xmcd CD database file
#
# Track frame offsets:
#	150
#	26122
#	55178
#	78738
#	99273
#	123483
#	145943
#	165623
#	182713
#
# Disc length: 2634 seconds
#
# Revision: 1
# Processed by: cddbd v1.5.2PL0 Copyright (c) Steve Scherf et al.
# Submitted via: CDex 1.51
#
DISCID=760a4809
DTITLE=Orquesta Bembe - Carnavales
DYEAR=2006
DGENRE=Salsa
TTITLE0=Noche como boca de lobo
TTITLE1=Carnavales
TTITLE2=De repente
TTITLE3=Reggaemonton
TTITLE4=Come te quise yo
TTITLE5=A la buena si
TTITLE6=Cambia el paso
TTITLE7=Piden los bailadores
TTITLE8=The cat
EXTD=YEAR: 2006
EXTT0=
EXTT1=
EXTT2=
EXTT3=
EXTT4=
EXTT5=
EXTT6=
EXTT7=
EXTT8=
PLAYORDER=
